<?xml version="1.0" standalone="no"?>
<!DOCTYPE svg PUBLIC "-//W3C//DTD SVG 20010904//EN"
 "http://www.w3.org/TR/2001/REC-SVG-20010904/DTD/svg10.dtd">
<svg version="1.0" xmlns="http://www.w3.org/2000/svg"
 width="335.000000pt" height="335.000000pt" viewBox="0 0 335.000000 335.000000"
 preserveAspectRatio="xMidYMid meet">
<metadata>
Created by potrace 1.14, written by Peter Selinger 2001-2017
</metadata>
<g transform="translate(0.000000,335.000000) scale(0.100000,-0.100000)"
fill="#000000" stroke="none">
<path d="M1315 2980 c-198 -198 -363 -359 -366 -358 -4 2 -39 42 -78 91 -51
61 -79 87 -94 87 -18 0 -90 -103 -387 -550 -201 -303 -369 -562 -375 -576 -9
-23 12 -46 354 -388 l362 -363 -90 -73 c-86 -69 -101 -90 -83 -116 14 -22
1087 -728 1112 -732 38 -5 1154 719 1158 752 2 18 -15 38 -92 100 -53 43 -96
81 -96 85 0 3 160 166 355 361 195 195 355 362 355 370 0 8 -164 267 -364 575
-300 462 -368 561 -388 563 -20 2 -36 -12 -90 -81 -37 -46 -73 -89 -80 -95
-11 -9 -87 62 -373 348 -198 198 -364 360 -370 360 -6 0 -172 -162 -370 -360z"/>
</g>
</svg>
